<svg xmlns="http://www.w3.org/2000/svg" width="894.667" height="857.333" version="1.0" viewBox="0 0 671 643"><path d="M425 37.6c-10.2 1.3-21.2 2.5-24.5 2.9-3.3.3-6.7.8-7.5 1-.8.2-4.2.6-7.5 1-3.3.3-13.4 1.5-22.5 2.6s-18.3 2.2-20.5 2.4c-2.2.3-8 1-13 1.5-4.9.6-10.6 1.3-12.5 1.5-4.8.6-36.5 4.4-42 5-6.1.7-37.5 4.4-42.5 5-2.2.3-7.8 1-12.5 1.5s-10.3 1.2-12.5 1.5c-5.8.7-37.2 4.4-42.5 5-2.5.3-8.3.9-12.9 1.5-4.6.5-8.7.7-9.2.5-.4-.3-1.1 1.1-1.5 3.2-2.1 12-3.5 15.8-26.6 73.3-7.7 19-18.5 46-24 60s-10.6 26-11.4 26.6c-.8.6-3.9 7.8-7 16-3 8.2-9.6 25.7-14.5 38.9-5 13.2-11.5 30.3-14.6 38C31.2 357 28.3 365 29.5 364c.9-.8 1.7-.4 2.8 1.2.9 1.3 3 3.9 4.7 5.8 1.8 1.9 5.5 6.2 8.3 9.4 4.6 5.2 22.2 25.5 31 35.6 1.7 1.9 4.9 5.5 7.1 8 2.3 2.5 6.6 7.4 9.6 11 3 3.5 7.3 8.5 9.5 11s6.5 7.5 9.5 11 6.2 7 7 7.8c.8.9 4.6 5.2 8.5 9.7 10.9 12.7 30.9 35.6 43.5 49.9 6.3 7.2 13 14.9 14.9 17.1 1.9 2.2 5.5 6.3 8 9.1 7.9 8.7 10.5 11.7 16.5 18.9 3.3 3.8 6.2 7.2 6.5 7.5.3.3 3.3 3.6 6.6 7.5 8.1 9.5 7.6 9 11.4 10.3 3.9 1.4 13.2.3 43.6-4.7 9.9-1.7 26.8-4.4 37.5-6.1 10.7-1.7 23.6-3.7 28.5-4.5 5-.8 20.9-3.3 35.5-5.5 14.6-2.2 27.8-4.3 29.3-4.6 1.6-.2 9.9-1.6 18.5-2.9 8.7-1.3 27-4.2 40.7-6.4 13.8-2.2 27-4.2 29.5-4.6 2.5-.3 6.8-1 9.5-1.5 2.8-.5 8.7-1.4 13.2-2.1 4.5-.6 8.9-1.6 9.7-2.3 1.4-1 49.6-126.2 49.6-128.7 0-1.8 40.4-107.6 43.3-113.5 1.4-2.7 3.9-9.2 5.7-14.4 1.7-5.2 4-11.3 5.1-13.6 1-2.2 1.9-4.7 1.9-5.5 0-.8-4.9-7.5-10.8-15-5.9-7.6-21.2-27.1-34.1-43.5-12.9-16.5-24.6-31.3-26-33-1.4-1.6-3.7-4.5-5.1-6.4-1.4-1.8-3.8-5-5.5-7.1-1.6-2-5.7-7.2-9-11.4s-8.2-10.5-11-14c-2.7-3.4-6.3-8-8-10.1-12.1-15.5-57.4-72.8-60.3-76.3-2-2.4-4.8-6-6.2-8-1.3-2-3.2-4.5-4.2-5.5-1-1.1-1.8-2.3-1.8-2.8 0-.8-4.5-3.3-8.2-4.6-1.3-.5-10.2.2-20.8 1.4zm12.7 11.1c-.8 2.3-12.5 36-16.8 48.1l-3.3 9.4-5.6-.7c-3-.3-6.6-.8-8-.9-2.4-.4-10.4-1.4-16.3-2.2-1.5-.2-4.4-.6-6.5-.8-5.1-.8-10.8-1.5-16.7-2.1-2.7-.3-6.1-.8-7.5-1-1.4-.3-4.5-.7-7-1-2.5-.3-40.9-5.3-85.5-11.1-69.6-9.1-86.3-11.4-80.8-11.4.9 0 75.7-8.1 87.3-9.5 2.5-.3 20.9-2.3 41-4.5s38.5-4.2 41-4.5c19.5-2.2 31.4-3.5 36.5-4 3.3-.3 7.1-.8 8.5-1 1.4-.2 5.4-.7 9-1.1 3.6-.3 11.2-1.2 17-1.9 14.8-1.8 14.3-1.8 13.7.2zm27 21.5c9.2 11.7 17.3 22 18 22.8.6.8 3.6 4.5 6.5 8.1 2.9 3.6 6.4 8.1 7.8 9.9 1.4 1.8 4.3 5.6 6.6 8.4 4.8 6 26.9 34 43.9 55.6 6.6 8.4 13.8 17.6 16.1 20.4 2.3 2.8 12.1 15.2 21.9 27.6 9.8 12.4 18.5 23.3 19.3 24.2 2 2.3.1 2.3-2.4 0-1-1-9.8-8-19.4-15.5-9.6-7.6-18.2-14.4-19.1-15.1-2.7-2.2-16.4-13-19.9-15.6-1.8-1.4-6.3-4.9-9.9-7.8-8.7-7-8.6-6.9-16.1-12.7-3.6-2.8-6.7-5.2-7-5.5-.3-.3-10.2-8.2-22-17.5s-21.7-17.1-22-17.4c-.3-.3-3.4-2.8-7-5.6-7.2-5.6-7.8-6-13.6-10.7-2.2-1.8-5.6-4.4-7.4-5.8-1.9-1.4-4.8-3.7-6.4-5.1-1.7-1.4-4.1-3.2-5.2-4-2.1-1.4-2.1-1.6 9-30.6 6.1-16.1 11.2-29.3 11.3-29.3.1 0 7.7 9.6 17 21.2zM210 88.4c3.6.4 13.3 1.5 21.5 2.6 8.3 1 17.5 2.2 20.5 2.5 3 .3 12.3 1.5 20.5 2.5 8.3 1 17.5 2.2 20.5 2.5 3 .4 6.6.8 8 1 1.4.2 4.8.7 7.5 1 2.8.3 10.2 1.2 16.5 2 6.3.8 13.5 1.7 16 2 11.1 1.3 13.9 1.7 21 2.5 7.4 1 10.5 1.3 20.5 2.5 12.6 1.4 22.1 2.7 23.4 3.1.8.3-.7 2-4 4.6-3 2.4-5.6 4.5-5.9 4.8-.5.5-11.8 10.1-15.5 13.2-1.1.9-5.4 4.5-9.5 8-4.2 3.4-9.8 8.1-12.5 10.3-2.6 2.2-9.4 7.8-14.9 12.5-5.6 4.7-15.3 12.9-21.6 18.2-6.3 5.2-20.7 17.3-32 26.8-103.7 87.2-156.4 130.8-157.3 130.3-.4-.2-.6-1.2-.3-2.1.2-1 .7-6.4 1.1-12.2.3-5.8.8-12.3 1-14.5.2-2.2.7-9 1-15 .4-6.1.8-12.4 1-14 .2-1.7.6-7.3 1-12.5.3-5.2.8-11.1 1-13 .2-1.9.7-8 1-13.5.3-5.5.8-12 1-14.5.2-2.5.7-7.9 1-12 .3-4.1.7-9.5 1-12 .2-2.5.7-8.6 1-13.5.3-5 .8-11 1-13.5.2-2.5.7-8.8 1-14 .4-5.2.8-10.9 1-12.5.2-1.7.6-8.2 1-14.5.4-6.3.8-12.2 1-13 .4-1.5.8-6.2 2-26.5.7-11.4 1.4-15.8 2.6-16.6.5-.3 12.1.9 25.7 2.6 13.6 1.8 27.6 3.5 31.2 3.9zm-69.3 20.3c-.5.9-1.1 8.2-3.2 40.3-.3 4.1-.7 10.6-1 14.5-.3 3.8-.7 10.8-1 15.5-.3 4.7-.7 11.2-1 14.5-.2 3.3-.7 10.5-1 16-.3 5.5-.8 12.2-1 15-.2 2.7-.7 10.2-1 16.5-.4 6.3-.8 13.1-1 15-.2 1.9-.6 8.4-1 14.5-.3 6-.8 13.2-1 16-.2 2.7-.7 9.7-1 15.5-.4 5.8-.8 12.1-1 14-.2 1.9-.7 9.1-1 16-.4 6.9-1.1 13.2-1.5 14-.6 1.1-10.6 2.7-41.7 6.6-22.4 2.8-41.4 4.9-42 4.6-.9-.3-.8-1.3.4-4 .9-2.1 4.9-12 9-22.2s10-24.8 13.3-32.5c3.2-7.7 8.4-20.7 11.5-29 3.1-8.2 6.6-16.7 7.7-19 1.2-2.2 5.6-13.2 10-24.4 4.3-11.2 9.1-23.1 10.7-26.5 1.5-3.3 6-14.4 9.9-24.6 3.9-10.2 9.3-23.7 12-30 2.7-6.3 7.1-17.2 9.8-24.2 2.7-7.1 5.3-12.8 5.7-12.8.5 0 .6.3.4.7zm276.8 16c.3 4.4 2 18.1 2.9 22.9.4 1.9 1.4 9.5 2.1 14.9.5 3.3 1.1 7.7 2.5 17.5.6 3.6 2.1 14.6 3.5 24.5s2.8 19.1 3 20.5c.2 1.4.9 6.1 1.5 10.5.7 4.4 1.3 8.7 1.5 9.5.1.8.6 3.7.9 6.5.4 2.7.9 6.1 1.1 7.5.2 1.4.6 4.7 1 7.5.3 2.7 1 7.5 1.5 10.5s1.2 7.7 1.5 10.5c.4 2.7.8 5.7 1 6.5.2.8.7 4 1 7 .3 3 .8 6.6 1 8 1.3 8.4 2.5 16.1 3 20 .3 2.5.8 5.6 1 7 .2 1.4.7 4.5 1 7 .3 2.5 1.5 10.6 2.6 18s2.2 14.6 2.4 16c.2 1.4.6 4.7 1 7.5.3 2.7 1.5 10.6 2.5 17.5 2 13.7 2.1 14 5 35.5 1.2 8.2 2.3 16.1 2.5 17.5.2 1.4.7 4.7 1 7.5.3 2.7.8 6.5 1.1 8.4.3 2.4.1 3.2-.8 2.8-45.4-17.2-87.5-33.3-130.8-49.9-103.4-39.8-157.6-60.6-178.3-68.4-11.4-4.3-20.4-8.1-20-8.5.5-.3 10.7-8.6 22.8-18.3 12.1-9.7 27.6-22.3 34.5-28 6.9-5.6 25.3-20.5 41-33.1 15.7-12.5 35-28.2 43-34.9 21.3-17.7 23.6-19.6 61-50.1 18.8-15.4 44-36 55.8-45.7 11.9-9.8 21.8-17.6 22-17.4.2.3.5 2.6.7 5.3zm25.1 9.3c4.5 3.6 6.5 5.1 10.9 8.5 2.2 1.6 4.2 3.3 4.3 3.7.2.4 1 .8 1.7.8s1.5.4 1.7.8c.2.4 2.1 2.1 4.3 3.7 2.2 1.7 4.6 3.5 5.5 4.2.8.7 6.2 4.8 12 9.3 5.8 4.5 11.2 8.6 12 9.3.9.7 3.3 2.5 5.5 4.1 2.2 1.7 4.2 3.2 4.5 3.5.3.4 4.1 3.3 8.5 6.6s8.2 6.2 8.5 6.5c.3.4 2.3 1.9 4.5 3.5 2.2 1.7 4.2 3.2 4.5 3.5.3.3 4.1 3.2 8.5 6.5s8.2 6.2 8.5 6.5c.3.4 2.3 1.9 4.5 3.5 2.2 1.7 4.2 3.2 4.5 3.5.3.3 4.1 3.2 8.5 6.5 4.3 3.3 8.6 6.5 9.5 7.2 1.4 1.2 12.7 9.9 23 17.8 10.2 7.9 21.6 16.7 23.6 18.3 2.2 1.7 2.1 1.8-15.7 25.7-9.9 13.2-18.5 24.7-19.2 25.5-.7.8-2.3 3.1-3.7 5-1.4 1.9-3 4.2-3.7 5-.7.8-5.1 6.7-9.8 13-4.7 6.3-9.2 12.2-9.8 13-.7.8-14.7 19.5-31.1 41.5-16.5 22-34.9 46.6-41 54.7-6 8.2-11.3 14.8-11.6 14.8-.3 0-.6-.9-.7-2-.1-1.1-.9-6.8-1.8-12.7-1.9-12.6-1.9-12.4-3.9-27.3-1.9-13.7-9.5-68.4-10.1-72-.2-1.4-2.5-17.4-5-35.5-2.5-18.2-4.8-34.4-5-36-.5-2.9-4-28.1-5-35.5-.3-1.9-2.5-17.7-4.9-35-2.5-17.3-4.8-33.8-5.1-36.5-.4-2.8-.8-6.1-1-7.5-.2-1.4-1.3-9.3-2.5-17.5-1.2-8.3-2.3-16.1-2.6-17.5-.2-1.4-.7-4.9-1.1-7.9l-.6-5.5 6.4 4.9c3.5 2.8 7.8 6.1 9.5 7.5zm167.3 177.1c-2.9 8-7.9 22-20.9 58.9-3.2 9.1-7.8 21.9-10.3 28.5-2.5 6.6-5.2 14.2-6 17-.8 2.7-3.6 10.6-6.2 17.5s-6.6 18.1-9 25c-2.4 6.9-7.7 21.9-11.8 33.5-4.1 11.5-9.6 26.8-12.1 34-2.6 7.1-4.9 13.7-5.2 14.5-.7 1.7-.3 2.1-20.6-22.5-7.7-9.4-15.7-19-17.8-21.5-10.6-12.6-11.9-14.4-11.1-15.4.5-.6 24.8-33.1 54-72.1 29.3-39.1 53.8-71.7 54.4-72.5.7-.8 2.3-3.1 3.7-5 1.3-1.9 2.9-4 3.5-4.6.5-.7 4.8-6.3 9.5-12.7 4.7-6.3 8.6-11.3 8.8-11.2.1.1-1.1 4-2.9 8.6zm-481.5 50.1c1.3 2.9 5.3 11.8 8.9 19.8 3.6 8 8.4 18.5 10.7 23.5 2.3 4.9 8.1 17.8 13 28.5 4.8 10.7 11.1 24.7 14 31 2.9 6.3 11.6 25.9 19.5 43.5s17.3 38.5 20.9 46.4c3.6 7.9 6.9 15.3 7.2 16.4.4 1.1-2.8-1.9-7-6.7-4.2-4.9-8.2-9.4-8.9-10.1-.7-.7-2.6-2.7-4.2-4.6-8.2-9.3-20-22.5-21-23.5-.5-.6-2.5-2.9-4.4-5-1.9-2.1-7.1-8-11.6-12.9-4.5-5-13.7-15.3-20.6-23-6.8-7.6-16.2-18.2-20.9-23.4-4.7-5.2-10.7-12-13.5-15.1-7.7-8.7-28.9-32.4-29.5-33-.3-.3-3.9-4.3-7.9-9-4.1-4.7-8-9-8.5-9.5-.6-.6-4.5-4.8-8.6-9.5-4.1-4.6-8.8-10-10.5-11.8-4.8-5.4-5-6-1.3-6.7 1.8-.3 15.9-2.1 31.3-4.1 15.4-1.9 32.1-4.1 37-4.9 14-2 13.2-2.2 15.9 3.7zm165.7 55.9c84.4 31.9 155.8 59 158.8 60.1l5.5 2.1-9 4.5c-4.9 2.5-26.9 13.2-48.9 23.7-95.7 46-117.3 56.3-138.4 66.6-20.1 9.8-24.1 11.6-24.1 10.6 0-.2-2.3-5.5-5.1-11.7-2.8-6.3-7-16-9.3-21.5-2.4-5.5-15.9-36.3-30.1-68.5-27.4-62.3-33.5-76.2-39.5-90.5-2.1-5-6.1-14.2-8.9-20.5-4.8-10.7-5.6-13-4.7-13 .2 0 69.4 26.1 153.7 58.1zm178.3 72.4c2 2.4 4.2 5 4.9 5.7.7.7 5.5 6.2 10.7 12.3 5.2 6 9.7 11.2 10 11.5.3.3 5 5.7 10.5 12s10.4 11.8 11 12.2c1.8 1.3-2.7 2.1-58.5 10.4-1.9.3-8.9 1.4-15.5 2.4s-13.6 2.1-15.5 2.4c-6.1.9-89 13.6-102 15.6-6.9 1.1-14.3 2.2-16.5 2.5-2.2.3-6.5 1-9.5 1.5s-7.7 1.2-10.5 1.6c-2.7.3-11 1.6-18.3 2.8-7.2 1.2-12.9 1.9-12.5 1.6.5-.4 8.5-4.3 17.8-8.7 17.1-8.1 134.7-64.3 170-81.2 10.5-5 19.3-9.1 19.6-9.1.4 0 2.3 2 4.3 4.5z"/><path d="M276.3 257.7c-.6 1.5 2.1 4.6 4.9 5.5.8.3-1.9 9-8.2 26.2l-9.4 25.8-3.8-.6c-3-.5-3.9-.3-4.7 1.3-1 1.7.1 2.3 12.1 6.6 19.2 6.9 26.5 7 36 .7 7.2-4.7 14-17.9 15.4-29.7 1.3-10.4-5-22.6-14-27.2-2.9-1.5-26.2-10.3-27.2-10.3-.3 0-.7.7-1.1 1.7zm19.7 11c9.6 3.5 14.9 10.2 15 18.8 0 9-6.1 25.5-11.6 30.9-5.3 5.2-10.2 5.8-20.9 2.5-4-1.2-6.5-2.5-6.3-3.2.9-3.5 18.4-50.7 18.8-50.7.2 0 2.5.7 5 1.7zM338 287.8c-5.5 2.7-8.1 8.3-7.8 16.4l.4 6.6-3.6 1.1c-4.3 1.3-9.8 6.4-11.6 10.8-2 4.7-1.8 12.2.5 15.6 4 6.1 11.5 8.6 18.3 6.2 2.4-.9 5-1.9 5.9-2.1 1.1-.4 1.9.5 2.7 3.4 1.4 4.7 2.2 5.4 8.6 7.6 6.1 2 5.6 2 5.6-.4 0-1.1-1.2-2.6-2.9-3.4-2.2-1.2-3.4-3-4.9-7.4l-1.9-5.8 3.4-3.9c1.9-2.2 4.6-5.9 6.1-8.3 2.6-4.1 2.9-4.2 6.5-3.6 2.9.4 3.7.3 3.7-.9 0-1.5-8.2-5.2-14.2-6.4-2.1-.4-2.8-.2-2.8 1.1 0 .9.4 1.6.8 1.6.5 0 1.7.6 2.7 1.4 1.8 1.3 1.8 1.4-.5 4.7-1.3 1.9-3.5 4.7-4.9 6.2l-2.6 2.8-3.1-9.3-3.1-9.3 4.3-1.3c5.1-1.5 10-6.8 11-11.8.9-4.8-1.7-9.7-6.1-11.8-4.2-2-6.2-2-10.5.2zm8.2 4.9c3.7 3.4 1.3 12-4.3 14.9-1.7.8-3.4 1.3-3.7 1-.3-.4-.8-3.3-1-6.6-.7-9.3 3.8-14 9-9.3zm-10.6 32.4c1.9 5.7 3.4 10.8 3.4 11.2 0 .4-1.6 1.5-3.6 2.3-9 3.8-17.1-5.4-13.4-15.2 1.3-3.2 7.8-9.6 9.3-9.1.5.1 2.5 5 4.3 10.8zM380.6 296.6c-.8 2.2-.9 2 2.4 3.4 1.7.7 3 1.8 3 2.5 0 .8-4 12.3-8.9 25.7l-8.9 24.3-4.1-.3c-3.5-.2-4.1.1-4.1 1.7 0 1.1.5 2.3 1 2.6 3.3 2 25.8 9.5 30.4 10 12.2 1.6 21.9-4.6 28.3-18.1 6.5-13.6 6.8-25.4 1-34.1-4.3-6.4-9.1-9.4-23.6-14.8-13.3-4.9-15.6-5.3-16.5-2.9zm20.7 10.7c11.1 5 14.8 14.2 11.2 28.2-3.2 12.1-7.9 20.1-13.7 23.1-4.5 2.3-16 1.5-20.7-1.5-1.1-.7.4-5.7 8-26.5 5.1-14.1 9.5-25.6 9.6-25.6.1 0 2.6 1.1 5.6 2.3z"/></svg>
